<svg xmlns="http://www.w3.org/2000/svg" viewBox="0 0 528.99 284.81"><defs><style>.cls-1{fill:#000000; <!--stroke: #ffffff; stroke-width: 10px; stroke-linejoin: round;-->}</style></defs><title>Asset 2dark</title><g id="Layer_2" data-name="Layer 2"><g id="Layer_1-2" data-name="Layer 1"><path class="cls-1" d="M213.63,46.4a55.73,55.73,0,0,1,50.1-30.92l.76,0c.26,0,.51,0,.77,0a55.75,55.75,0,0,1,50.1,30.92l28,55.8,15-2.89L329.23,39.88A71.7,71.7,0,0,0,265.26,0h-1.53a71.73,71.73,0,0,0-64,39.88L170.6,99.31l15,2.89Z"/><path class="cls-1" d="M442.29,253.34l8.14-36.45L370.11,232a12.63,12.63,0,1,1-1.38-7.28l85.84-16.19h.05l46.26-8.73,8.2-36.71-129,24.34a12.63,12.63,0,1,1-1.38-7.28l132.15-24.93,8.2-36.71L390,142.88a12.63,12.63,0,1,1-1.38-7.28l132.15-24.93L529,74,344.3,109.57l-8.59,32.84a3.72,3.72,0,0,1-3.58,2.77,3.38,3.38,0,0,1-.94-.13,3.7,3.7,0,0,1-2.65-4.52l8.82-33.75L308.74,49.72a48.39,48.39,0,0,0-43.48-26.83l-.77,0-.76,0a48.38,48.38,0,0,0-43.48,26.83l-28.63,57.06,8.83,33.75a3.71,3.71,0,0,1-2.65,4.52,3.38,3.38,0,0,1-.94.13,3.7,3.7,0,0,1-3.58-2.77l-8.59-32.84L0,74l8.19,36.69L140.34,135.6a12.6,12.6,0,1,1-1.38,7.28L10,118.54l8.2,36.71L150.3,180.18a12.61,12.61,0,1,1-1.38,7.28l-129-24.34,8.2,36.71,46.26,8.73h0l85.84,16.19a12.61,12.61,0,1,1-1.38,7.28L78.56,216.89l8.14,36.45,177.79,31.47ZM224.82,74.54a14,14,0,0,1,4.11-9.93,3.7,3.7,0,1,1,5.24,5.23,6.65,6.65,0,0,0,4.7,11.35,6.57,6.57,0,0,0,4.7-2,3.71,3.71,0,0,1,5.24,5.24,13.93,13.93,0,0,1-9.94,4.12A14.07,14.07,0,0,1,224.82,74.54Zm67.82,38-24.86,48h0a3.67,3.67,0,0,1-1.58,1.59,3.75,3.75,0,0,1-1.7.42h0a3.68,3.68,0,0,1-1.7-.42,3.62,3.62,0,0,1-1.58-1.59h0l-24.85-48a3.71,3.71,0,0,1,1.1-4.69l24.86-18.18.13-.07a2.5,2.5,0,0,1,.35-.21l.31-.14a2.3,2.3,0,0,1,.34-.12,2.25,2.25,0,0,1,.35-.09l.35,0,.35,0,.36,0,.35,0a2.14,2.14,0,0,1,.34.09,2.06,2.06,0,0,1,.35.12l.3.14a3.35,3.35,0,0,1,.36.21l.13.07,24.85,18.18A3.7,3.7,0,0,1,292.64,112.56Zm-2.53-24a14,14,0,0,1-9.94-4.12,3.71,3.71,0,0,1,5.24-5.24,6.65,6.65,0,1,0,9.4-9.4,3.7,3.7,0,1,1,5.24-5.23,13.92,13.92,0,0,1,4.12,9.93A14.08,14.08,0,0,1,290.11,88.6Z"/><polygon class="cls-1" points="244.39 111.92 264.49 150.74 284.6 111.92 264.49 97.22 244.39 111.92"/></g></g></svg>