<svg
                width="527"
                height="427"
                viewBox="0 0 527 427"
                fill="none"
                xmlns="http://www.w3.org/2000/svg"
              >
                <g opacity="0.5">
                  <path
                    opacity="0.5"
                    d="M520.203 199.069H469.29C465.536 199.069 462.492 202.491 462.492 206.713V263.972C462.492 268.194 465.536 271.617 469.29 271.617H520.203C523.957 271.617 527 268.194 527 263.972V206.713C527 202.491 523.957 199.069 520.203 199.069Z"
                    fill="#D0D2D5"
                  />
                  <path
                    opacity="0.1"
                    d="M485.6 219.918H503.893C503.893 219.918 519.298 235.078 503.893 250.778H485.6C485.6 250.778 470.195 236.702 485.6 219.918Z"
                    fill="black"
                  />
                  <path
                    opacity="0.5"
                    d="M489.932 228.575H487.525V236.696H489.932V228.575Z"
                    fill="#3F3D56"
                  />
                  <path
                    opacity="0.5"
                    d="M501.967 227.493H499.56V237.238H501.967V227.493Z"
                    fill="#3F3D56"
                  />
                  <path
                    opacity="0.5"
                    d="M494.746 241.569C495.512 241.569 496.247 241.911 496.789 242.521C497.33 243.13 497.634 243.956 497.634 244.818V247.525H491.858V244.818C491.858 243.956 492.162 243.13 492.704 242.521C493.245 241.911 493.98 241.569 494.746 241.569Z"
                    fill="#3F3D56"
                  />
                </g>
                <path
                  d="M299.321 129.103C300.847 129.065 302.368 129.195 303.89 129.103C305.281 129.027 306.662 128.773 308.054 128.616C310.432 128.351 312.829 128.372 315.217 128.259C316.786 128.183 318.442 128.01 319.713 126.97C320.907 126.001 321.571 124.42 322.635 123.272C326.968 118.589 329.938 112.325 333.789 107.128C334.752 105.807 335.758 104.491 336.63 103.078C338.3 100.371 339.48 97.3011 340.654 94.2693C341.117 93.1453 341.503 91.9834 341.81 90.7935C342.026 89.8406 342.137 88.8552 342.426 87.924C343.023 86.0183 344.457 84.3508 344.631 82.3422L344.428 82.3746C346.181 79.8679 345.911 75.4988 346.778 72.2883C347.332 70.3814 348.002 68.5199 348.785 66.7172L352.006 58.829C352.559 57.4755 353.137 56.0786 354.095 55.0391C355.255 53.7777 356.873 53.1496 358.038 51.8936C358.73 51.1202 359.249 50.1716 359.549 49.127L359.65 49.2353C360.266 49.912 360.748 50.7404 361.35 51.4388C362.645 52.9439 364.44 53.8047 365.759 55.2828C366.433 56.0353 366.987 56.9503 367.8 57.4971C368.216 57.7523 368.692 57.8546 369.162 57.7895C369.632 57.7244 370.071 57.4953 370.419 57.1344C372.783 54.7955 376.307 54.5789 378.863 52.5162C379.571 51.9423 380.187 51.2439 380.851 50.6159C382.437 49.1945 384.16 47.9777 385.988 46.9885C387.06 47.0081 388.126 47.1791 389.16 47.4974C390.643 47.9576 392.092 48.721 393.632 48.6885C395.008 48.6122 396.325 48.0431 397.392 47.0643C398.177 46.3821 398.894 45.44 399.01 44.3572C399.039 43.8015 398.95 43.2458 398.749 42.7371C398.548 42.2283 398.241 41.7813 397.854 41.4336C397.748 41.3308 397.638 41.2387 397.527 41.1467C397.494 40.6608 397.375 40.1874 397.175 39.7547C396.976 39.3221 396.701 38.9393 396.367 38.6292C395.586 37.9423 394.696 37.4313 393.743 37.1241C393.213 36.8899 392.655 36.7475 392.087 36.7018C391.202 36.756 390.331 36.9851 389.516 37.3785C387.878 37.9719 386.189 38.3711 384.476 38.5696C384.173 38.6021 383.557 38.5317 383.032 38.5263L382.854 37.9524C380.851 38.9919 378.521 38.1365 376.326 38.1419C375.257 38.1419 374.193 38.3531 373.13 38.4289C371.951 38.4812 370.771 38.4523 369.596 38.3422L366.038 38.0878C364.519 37.9999 363.005 37.8192 361.504 37.5464C361.104 36.6314 360.705 35.7164 360.257 34.8393C359.503 33.365 358.617 31.9809 357.614 30.7084C358.017 30.3181 358.442 29.9564 358.885 29.6256L358.972 29.5661C359.082 29.4957 359.217 29.4199 359.366 29.3441C360.755 30.0867 362.288 30.4222 363.823 30.3193C365.357 30.2163 366.844 29.6783 368.144 28.7554C369.444 27.8325 370.516 26.5546 371.259 25.0406C372.002 23.5267 372.392 21.8261 372.393 20.0969C372.657 19.9828 372.914 19.8508 373.163 19.7017C373.308 19.6151 373.452 19.523 373.592 19.4202L373.799 19.2632C373.93 19.151 374.056 19.0299 374.174 18.9004C374.232 18.8354 374.29 18.7705 374.343 18.7001C374.448 18.5599 374.54 18.4074 374.617 18.2453C374.646 18.1803 374.675 18.1208 374.699 18.0558C374.723 17.9909 374.699 18.0071 374.723 17.98C374.747 17.953 374.757 17.8826 374.771 17.8393C374.786 17.7959 374.771 17.7743 374.795 17.7418L374.824 17.6119C374.826 17.5776 374.826 17.5432 374.824 17.509C374.824 17.4657 374.824 17.4224 374.824 17.3845V17.2708C374.822 17.2311 374.822 17.1913 374.824 17.1517C374.826 17.112 374.826 17.0722 374.824 17.0326C374.824 16.9947 374.824 16.9514 374.824 16.9135C374.826 16.8738 374.826 16.834 374.824 16.7943V16.6482C374.826 16.6067 374.826 16.5651 374.824 16.5236C374.824 16.4857 374.824 16.4478 374.824 16.41V16.28V16.1717C374.824 16.123 374.824 16.0743 374.824 16.031C374.826 15.9985 374.826 15.966 374.824 15.9335C374.827 15.883 374.827 15.8324 374.824 15.7819C374.824 15.7494 374.824 15.7224 374.824 15.6953C374.824 15.6682 374.824 15.587 374.79 15.5329V15.4571L374.747 15.2838V15.2189C374.747 15.1593 374.713 15.0998 374.699 15.0402V14.9861L374.641 14.7912V14.7587C374.641 14.6666 374.588 14.5692 374.559 14.4771C374.198 13.3077 373.808 12.1437 373.394 10.9959C373.093 10.0354 372.639 9.14409 372.056 8.36468C371.204 7.34684 369.981 6.83792 368.961 6.02582C367.757 5.07295 366.857 3.72485 365.836 2.52294C364.816 1.32102 363.579 0.232795 362.11 0.0324751C360.944 -0.0440103 359.778 0.195505 358.712 0.730887C349.868 4.40161 342.628 11.6348 334.699 17.3736C331.613 19.6096 328.157 21.7049 324.503 21.4179L327.729 27.1785C327.883 27.46 328.041 27.7199 328.21 28.0122C328.378 28.3046 328.547 28.5536 328.725 28.8243C329.18 29.5259 329.754 30.1186 330.415 30.5677C330.581 30.6766 330.755 30.7707 330.935 30.8492C331.092 30.9157 331.253 30.9718 331.416 31.017C332.567 31.3256 333.823 31.0658 334.988 30.8059C335.388 30.7193 335.787 30.6272 336.182 30.5244L336.663 30.3728H336.74C336.74 30.4052 336.74 30.4323 336.74 30.4594C336.471 31.0008 336.216 31.4935 335.989 32.0295C335.246 33.9696 334.671 35.9857 334.271 38.0499C333.361 42.1104 332.446 46.2576 332.687 50.4264C332.769 51.834 332.981 53.2742 332.62 54.6277C332.446 55.2936 332.138 55.9758 332.302 56.6363C332.474 57.0177 332.622 57.4121 332.745 57.8165C332.822 58.4446 332.379 58.986 332.061 59.5057C331.743 60.0255 331.58 60.8538 332.032 61.2166C331.574 61.3971 331.17 61.7186 330.866 62.1445C330.563 62.5704 330.371 63.0836 330.314 63.6258C330.324 63.9445 330.268 64.2615 330.15 64.5516C330.015 64.7477 329.852 64.9177 329.669 65.0551C329.18 65.5164 328.859 66.164 328.768 66.8742C327.839 66.8742 327.055 67.8921 326.207 68.4984C325.466 68.9206 324.682 69.2405 323.873 69.4513C321.547 70.2851 319.54 72.0013 317.725 73.8096C316.714 74.8004 315.694 75.894 315.251 77.3125C315.106 77.7781 315.029 78.2654 314.904 78.7364C314.645 79.6485 314.269 80.513 313.787 81.3027C312.864 82.9003 311.727 84.3284 310.417 85.5364C309.754 86.1368 309.171 86.8405 308.684 87.6263C307.948 88.8228 306.451 89.1801 305.661 90.3333C305.377 90.9013 305.055 91.4443 304.698 91.9575C304.087 92.6072 303.163 92.6613 302.383 93.0403C300.558 93.8903 299.716 96.2887 298.089 97.5556C297.999 97.6409 297.883 97.6836 297.766 97.6747C297.627 97.6747 297.545 97.4852 297.424 97.3932C297.188 97.2145 296.876 97.3499 296.596 97.4311C296.317 97.5123 295.942 97.4798 295.869 97.1658C291.946 94.4913 288.09 91.5893 284.162 88.9148L282.371 87.6966L272.791 81.1673C272.678 81.0876 272.547 81.0453 272.413 81.0453C272.279 81.0453 272.148 81.0876 272.035 81.1673L271.737 81.4001C271.255 80.8262 270.721 80.3173 270.403 79.895C270.273 79.7272 270.143 79.5593 270.009 79.3969C270.096 79.4005 270.183 79.382 270.264 79.3428C270.371 79.2771 270.453 79.1677 270.491 79.037C270.53 78.9062 270.522 78.7639 270.471 78.6389C270.368 78.3922 270.217 78.1754 270.028 78.0055C269.609 77.549 269.224 77.0547 268.877 76.5275C268.503 75.867 268.08 75.2439 267.611 74.665C267.374 74.3753 267.083 74.1494 266.758 74.0041C266.433 73.8588 266.083 73.7979 265.734 73.8259C265.346 73.9093 264.977 74.0766 264.646 74.3185C263.329 75.1788 262.116 76.225 261.035 77.4316C260.987 77.47 260.948 77.5203 260.921 77.5785C260.893 77.6367 260.878 77.7013 260.876 77.7673C260.876 77.8756 260.973 77.9568 260.982 78.0596C260.985 78.1599 260.952 78.2573 260.891 78.3303C260.243 79.2348 259.475 80.0218 258.614 80.6638C257.391 81.6925 256.195 82.7608 255.027 83.8689C254.296 84.4536 253.717 85.2482 253.352 86.1699C253.097 87.239 253.202 88.3763 253.646 89.3642C254.445 91.4811 255.846 93.2352 257.232 94.9298C257.46 95.2785 257.783 95.5335 258.152 95.6553C258.445 95.7007 258.742 95.6194 258.984 95.4279C259.836 94.7999 259.976 93.5005 260.039 92.3635C260.063 91.8221 260.092 91.324 260.121 90.8043C260.118 90.7001 260.137 90.5967 260.173 90.5011C260.247 90.3831 260.349 90.2911 260.467 90.2358L261.791 89.4508C261.752 89.3804 261.709 89.31 261.666 89.2396C262.664 88.8183 263.752 88.7392 264.79 89.0122C265.493 89.245 266.138 89.7161 266.812 90.0084C266.705 91.0188 266.873 92.042 267.293 92.9428C269.763 93.2298 271.987 94.4642 274.197 95.7094C275.978 96.7022 277.711 97.8029 279.386 99.0066C280.747 100.003 282.079 101.044 283.382 102.13C285.23 103.668 287.016 105.298 288.783 106.944C289.932 108.083 291.167 109.107 292.476 110.002C295.951 112.195 300.611 112.271 303.803 109.537C307.827 106.088 312.95 104.296 317.282 101.313C318.569 100.503 319.745 99.4875 320.772 98.2973C320.763 98.4378 320.743 98.5772 320.715 98.7142C320.455 100.062 319.42 101.037 319.03 102.401C318.726 103.484 318.837 104.735 318.25 105.65C317.802 106.348 316.964 106.846 316.94 107.707C316.94 107.945 317.003 108.183 317.003 108.422C316.979 108.723 316.9 109.016 316.772 109.282C316.29 110.501 315.751 111.778 314.764 112.531C314.379 112.829 313.888 113.099 313.802 113.614C313.796 113.763 313.762 113.909 313.701 114.041C313.537 114.296 313.176 114.16 312.916 114.269C312.555 114.42 312.497 114.946 312.353 115.352C312.221 115.689 311.997 115.971 311.715 116.157C311.432 116.344 311.105 116.426 310.778 116.391C307.49 115.942 304.26 117.615 300.948 117.517C299.807 117.479 298.671 117.349 297.525 117.339C294.011 117.306 290.569 118.421 287.185 119.504C286.808 120.253 286.575 121.083 286.501 121.94C285.345 122.274 284.139 122.326 282.963 122.092C282.67 122.027 282.375 121.982 282.077 121.957C282.162 121.712 282.189 121.447 282.154 121.188C280.772 121.681 279.443 122.347 278.192 123.175C277.369 123.716 276.498 124.474 276.421 125.541C276.409 125.952 276.461 126.362 276.575 126.754L277.023 128.665C277.077 129.018 277.215 129.349 277.422 129.623C277.571 129.785 277.769 129.883 277.903 130.056C278.034 130.261 278.123 130.496 278.163 130.744L278.539 132.4C278.679 132.952 278.779 133.515 278.837 134.084C278.881 134.626 278.837 135.124 278.871 135.643C278.922 136.5 279.033 137.351 279.203 138.188L279.738 141.187C279.857 142.026 280.069 142.844 280.368 143.624C280.595 144.165 280.898 144.631 281.081 145.172C281.225 145.589 281.293 146.033 281.466 146.428C281.778 147.07 282.268 147.58 282.862 147.879C283.069 148.016 283.301 148.098 283.541 148.117C284.224 148.117 284.715 147.403 285.033 146.721C285.666 145.48 286.009 144.079 286.03 142.649C286.03 142.075 285.928 141.507 285.885 140.933C285.77 139.309 286.184 137.728 286.184 136.109C286.199 135.892 286.148 135.676 286.038 135.496C285.929 135.317 285.768 135.185 285.582 135.124C285.625 133.748 285.62 132.292 286.265 131.117C286.585 130.571 286.982 130.086 287.44 129.683C287.618 130.321 287.816 130.955 288.037 131.572C291.7 130.37 295.484 129.212 299.321 129.103ZM377.592 45.9598C377.332 46.0681 377.067 46.1763 376.798 46.2738C374.554 47.113 371.984 47.9305 369.663 47.3566C368.96 47.1283 368.298 46.7617 367.709 46.2738L367.54 46.1547C370.809 45.5104 374.222 45.6674 377.592 45.9598Z"
                  fill="url(#paint0_linear)"
                />
                <path
                  d="M390.619 40.3887C391.429 39.9981 392.295 39.7726 393.175 39.7228C393.74 39.771 394.295 39.9152 394.821 40.1505C395.773 40.4626 396.662 40.9773 397.44 41.6664C397.825 42.0161 398.131 42.4634 398.333 42.9715C398.534 43.4797 398.626 44.0343 398.6 44.59C398.49 45.6728 397.777 46.6094 396.997 47.297C395.939 48.2748 394.63 48.8442 393.262 48.9212C391.731 48.9483 390.287 48.1741 388.809 47.7139C387.734 47.3719 386.623 47.1899 385.506 47.1725C384.944 47.2066 384.38 47.1666 383.826 47.0534C383.548 46.9945 383.287 46.8628 383.063 46.669C382.839 46.4753 382.658 46.2249 382.536 45.9381C382.396 45.4081 382.396 44.8439 382.536 44.3139C382.647 43.6425 382.628 42.0508 383.157 41.6502C383.581 41.3253 385.083 41.5852 385.603 41.5365C387.306 41.3549 388.988 40.9702 390.619 40.3887Z"
                  fill="#FBBEBE"
                />
                <path
                  d="M356.252 29.4904C357.71 31.0943 358.965 32.916 359.982 34.9044C361.677 38.2286 362.755 42.0942 365.307 44.6497C365.985 45.2915 366.704 45.876 367.459 46.3984C368.048 46.8861 368.71 47.2526 369.413 47.4812C371.705 48.0605 374.275 47.2538 376.509 46.3984C378.72 45.5059 380.866 44.4198 382.926 43.15C382.94 44.196 383.199 45.2193 383.677 46.1169C384.211 46.9669 385.304 47.465 386.084 46.929C384.109 47.9729 382.246 49.2681 380.533 50.7892C379.874 51.4172 379.263 52.1102 378.56 52.6787C376.023 54.7306 372.513 54.9363 370.169 57.2644C369.821 57.6208 369.384 57.8462 368.917 57.9093C368.45 57.9724 367.977 57.87 367.565 57.6163C366.751 57.0749 366.197 56.1437 365.528 55.3911C364.209 53.9077 362.418 53.0414 361.123 51.5309C360.522 50.8325 360.04 50.0042 359.424 49.322C358.543 48.3475 357.397 47.6978 356.589 46.615C355.987 45.8191 355.626 44.85 355.063 44C354.581 43.2637 354.013 42.6194 353.585 41.8344C352.535 39.9557 352.545 37.5031 353.147 35.3971C353.748 33.291 355.13 31.3257 356.252 29.4904Z"
                  fill="#F86D70"
                />
                <path
                  opacity="0.1"
                  d="M356.252 29.4904C357.71 31.0943 358.965 32.916 359.982 34.9044C361.677 38.2286 362.755 42.0942 365.307 44.6497C365.985 45.2915 366.704 45.876 367.459 46.3984C368.048 46.8861 368.71 47.2526 369.413 47.4812C371.705 48.0605 374.275 47.2538 376.509 46.3984C378.72 45.5059 380.866 44.4198 382.926 43.15C382.94 44.196 383.199 45.2193 383.677 46.1169C384.211 46.9669 385.304 47.465 386.084 46.929C384.109 47.9729 382.246 49.2681 380.533 50.7892C379.874 51.4172 379.263 52.1102 378.56 52.6787C376.023 54.7306 372.513 54.9363 370.169 57.2644C369.821 57.6208 369.384 57.8462 368.917 57.9093C368.45 57.9724 367.977 57.87 367.565 57.6163C366.751 57.0749 366.197 56.1437 365.528 55.3911C364.209 53.9077 362.418 53.0414 361.123 51.5309C360.522 50.8325 360.04 50.0042 359.424 49.322C358.543 48.3475 357.397 47.6978 356.589 46.615C355.987 45.8191 355.626 44.85 355.063 44C354.581 43.2637 354.013 42.6194 353.585 41.8344C352.535 39.9557 352.545 37.5031 353.147 35.3971C353.748 33.291 355.13 31.3257 356.252 29.4904Z"
                  fill="black"
                />
                <path
                  d="M270.692 79.489C270.319 78.9385 269.859 78.4705 269.335 78.1084C268.538 77.711 267.649 77.6086 266.798 77.816C264.65 78.1842 262.657 79.2887 260.77 80.5231C259.249 81.503 257.738 82.5912 256.65 84.1342C256.291 84.5994 256.041 85.1576 255.923 85.7584C255.861 86.2542 255.899 86.7593 256.033 87.2365C256.13 87.7737 256.335 88.2787 256.633 88.7125C256.931 89.1462 257.314 89.497 257.752 89.7378C258.758 90.1817 259.88 89.7107 260.891 89.2776C262.248 88.6874 263.741 88.1406 265.137 88.6062C266.172 88.9527 267.062 89.8352 268.155 89.8677C269.44 89.911 270.48 88.7416 271.299 87.6263C272.006 86.6518 273.556 84.8922 273.455 83.5224C273.354 82.1527 271.453 80.4689 270.692 79.489Z"
                  fill="#FBBEBE"
                />
                <path
                  d="M286.915 121.626C285.737 121.979 284.505 122.037 283.305 121.794C282.573 121.643 281.678 121.448 281.211 122.092C281.06 122.331 280.96 122.605 280.917 122.893C279.718 128.41 280.816 134.263 282.843 139.487C282.868 139.576 282.915 139.654 282.978 139.715C283.108 139.823 283.286 139.747 283.435 139.677C283.925 139.455 284.384 139.154 284.797 138.784C285.722 137.841 285.919 136.309 285.962 134.907C286.006 133.505 285.986 132.021 286.631 130.819C287.44 129.331 289.13 128.605 289.794 127.03C290.329 125.747 290.049 124.225 289.578 122.915C289.419 122.46 289.356 121.291 288.981 121.069C288.605 120.847 287.344 121.496 286.915 121.626Z"
                  fill="#FBBEBE"
                />
                <path
                  d="M270.553 78.9367C270.659 78.8701 270.74 78.7604 270.777 78.6297C270.815 78.499 270.807 78.3572 270.755 78.2329C270.651 77.9854 270.5 77.7671 270.312 77.594C269.892 77.1383 269.509 76.6419 269.166 76.1106C268.788 75.4535 268.365 74.8308 267.9 74.2482C267.664 73.9588 267.373 73.7328 267.049 73.5866C266.725 73.4405 266.376 73.3779 266.027 73.4036C265.641 73.4814 265.272 73.6472 264.944 73.8908C263.635 74.7444 262.429 75.7853 261.358 76.9877C261.276 77.0797 261.184 77.1934 261.204 77.3233C261.223 77.4533 261.3 77.5074 261.31 77.6157C261.313 77.7135 261.282 77.8087 261.223 77.881C260.58 78.7818 259.817 79.5653 258.96 80.2036C257.747 81.2287 256.56 82.2934 255.398 83.3979C254.671 83.9794 254.098 84.7706 253.737 85.688C253.491 86.7572 253.599 87.8905 254.04 88.8769C254.844 90.9992 256.245 92.7533 257.627 94.4588C257.858 94.8065 258.182 95.0625 258.551 95.1897C258.843 95.2342 259.139 95.153 259.379 94.9623C260.222 94.3397 260.342 93.0403 260.414 91.9088L260.491 90.3441C260.489 90.2417 260.507 90.14 260.544 90.0463C260.617 89.9272 260.719 89.8349 260.838 89.781L262.147 89.0014C261.747 88.269 261.177 87.6727 260.499 87.276C259.82 86.8794 259.059 86.6973 258.296 86.7492C257.947 86.8425 257.58 86.7865 257.266 86.5922C257.114 86.4147 257.029 86.1779 257.029 85.9317C257.029 85.6854 257.114 85.4487 257.266 85.2711C257.585 84.93 257.976 84.6859 258.402 84.5619C261.854 83.138 264.973 80.8533 268.324 79.1479C268.69 78.939 269.097 78.8331 269.508 78.8393C269.845 78.8663 270.24 79.0883 270.553 78.9367Z"
                  fill="#F86D70"
                />
                <path
                  d="M284.152 135.632C283.998 135.957 283.945 136.336 283.777 136.656C283.608 136.975 283.242 137.197 282.958 137.035C282.809 136.917 282.697 136.748 282.64 136.553C281.181 132.798 280.769 128.633 281.461 124.61C281.557 123.951 281.73 123.311 281.976 122.704C282.231 122.119 282.602 121.524 282.496 120.885C281.121 121.372 279.8 122.033 278.558 122.855C277.74 123.397 276.878 124.149 276.801 125.21C276.794 125.622 276.847 126.032 276.96 126.423L277.412 128.334C277.467 128.689 277.607 129.021 277.817 129.293C277.961 129.455 278.159 129.558 278.298 129.731C278.431 129.933 278.52 130.166 278.558 130.413L278.938 132.07C279.08 132.623 279.182 133.188 279.242 133.759C279.285 134.301 279.242 134.799 279.28 135.318C279.335 136.173 279.447 137.022 279.617 137.858L280.161 140.857C280.284 141.695 280.497 142.513 280.797 143.293C281.023 143.835 281.326 144.3 281.514 144.847C281.654 145.264 281.726 145.708 281.899 146.103C282.212 146.744 282.7 147.255 283.29 147.56C283.498 147.696 283.73 147.779 283.969 147.803C284.648 147.83 285.134 147.089 285.452 146.406C286.073 145.166 286.404 143.769 286.415 142.346C286.415 141.772 286.309 141.204 286.265 140.63C286.145 139.005 286.549 137.43 286.545 135.811C286.554 134.295 284.648 134.582 284.152 135.632Z"
                  fill="#F86D70"
                />
                <path
                  d="M354.783 41.3038C353.283 40.5275 351.965 39.369 350.932 37.92C350.401 37.156 349.919 36.3509 349.488 35.5107C347.66 32.0404 346.09 28.406 344.794 24.6447C346.845 25.1158 348.997 25.5435 351.014 24.8938C352.066 24.5332 353.047 23.9487 353.902 23.1721C354.999 22.1579 356.017 21.0404 356.945 19.8317C357.646 21.3434 358.451 22.7915 359.352 24.1629C359.867 24.9425 361.61 26.5288 361.48 27.59C361.35 28.6511 359.424 29.1817 358.644 29.6852L358.562 29.7448C357.412 30.5624 356.408 31.6145 355.602 32.847C354.09 35.2617 353.565 38.6292 354.783 41.3038Z"
                  fill="#FBBEBE"
                />
                <path
                  opacity="0.1"
                  d="M358.683 29.6635C357.525 29.0245 356.503 28.114 355.685 26.9933C354.868 25.8726 354.273 24.5677 353.941 23.1666C355.038 22.1525 356.056 21.0349 356.983 19.8262C357.685 21.3379 358.489 22.786 359.39 24.1574C359.906 24.937 361.648 26.5233 361.518 27.5845C361.388 28.6456 359.463 29.16 358.683 29.6635Z"
                  fill="black"
                />
                <path
                  d="M363.015 30.4593C367.995 30.4593 372.032 25.9193 372.032 20.3188C372.032 14.7184 367.995 10.1783 363.015 10.1783C358.036 10.1783 353.999 14.7184 353.999 20.3188C353.999 25.9193 358.036 30.4593 363.015 30.4593Z"
                  fill="#FBBEBE"
                />
                <path
                  d="M343.292 83.4846C342.668 83.9054 341.958 84.1371 341.231 84.157C340.503 84.1769 339.784 83.9844 339.143 83.5983C338.475 83.1354 337.871 82.5644 337.352 81.9037C334.391 78.4874 331.575 74.8654 329.596 70.6262C329.136 69.7318 328.839 68.7436 328.72 67.7189C328.665 67.2068 328.72 66.6872 328.882 66.2044C329.044 65.7217 329.307 65.2902 329.649 64.9469C329.833 64.81 329.996 64.6399 330.131 64.4434C330.247 64.1547 330.301 63.8395 330.29 63.523C330.343 62.983 330.532 62.471 330.833 62.0465C331.135 61.622 331.537 61.3024 331.994 61.1246C331.512 60.7564 331.705 59.9389 332.018 59.4138C332.331 58.8886 332.769 58.331 332.692 57.7246C332.569 57.3201 332.421 56.9258 332.249 56.5443C332.076 55.8838 332.389 55.2016 332.557 54.5411C332.908 53.1876 332.697 51.7475 332.61 50.3398C332.355 46.171 333.255 42.0347 334.146 37.9796C334.539 35.9204 335.107 33.9081 335.84 31.97C336.066 31.4286 336.322 30.8872 336.582 30.4053C337.491 28.7485 338.503 27.1655 339.61 25.668C340.128 24.7871 340.839 24.0711 341.675 23.589C341.753 23.5509 341.833 23.5184 341.915 23.4916C342.515 23.3173 343.138 23.2642 343.754 23.3346C345.382 23.4483 347.091 23.876 348.251 25.1645C349.411 26.4531 349.786 28.2614 350.311 30.0047C350.478 30.5882 350.681 31.158 350.918 31.7101C351.683 33.4209 352.93 34.7853 354.158 36.1117L355.491 37.5573C356.16 38.2828 357.32 38.0987 357.951 38.8621C358.208 39.2208 358.399 39.6329 358.514 40.0748C359.226 42.0276 359.641 44.1012 359.742 46.2089C359.747 46.6776 359.722 47.1462 359.67 47.6111C359.506 49.2429 358.864 50.7669 357.845 51.9424C356.69 53.193 355.082 53.8102 353.931 55.0663C352.968 56.1058 352.41 57.4972 351.861 58.8561C350.802 61.4765 349.741 64.1005 348.679 66.7281C347.91 68.5261 347.249 70.38 346.701 72.2775C345.699 76.0619 346.267 81.4002 343.292 83.4846Z"
                  fill="#F86D70"
                />
                <path
                  d="M315.491 128.096C313.113 128.204 310.73 128.172 308.362 128.426C306.98 128.578 305.603 128.833 304.217 128.897C302.705 128.973 301.189 128.838 299.673 128.87C295.855 128.962 292.09 130.105 288.417 131.285C287.381 128.437 286.84 125.392 286.824 122.314C286.814 122.11 286.814 121.906 286.824 121.702C286.891 120.831 287.122 119.986 287.503 119.223C290.873 118.14 294.29 117.057 297.79 117.111C298.931 117.111 300.062 117.263 301.199 117.301C304.496 117.414 307.702 115.752 310.976 116.218C311.3 116.254 311.627 116.173 311.908 115.987C312.189 115.802 312.411 115.52 312.54 115.184C312.68 114.783 312.738 114.258 313.099 114.101C313.359 113.993 313.715 114.128 313.879 113.879C313.937 113.745 313.971 113.6 313.98 113.451C314.076 112.91 314.562 112.666 314.943 112.368C315.905 111.621 316.449 110.344 316.931 109.12C317.057 108.855 317.134 108.564 317.157 108.265C317.157 108.026 317.09 107.788 317.094 107.544C317.094 106.689 317.947 106.196 318.389 105.498C318.972 104.578 318.871 103.332 319.155 102.25C319.54 100.885 320.565 99.9161 320.821 98.5734C320.849 98.4364 320.869 98.297 320.878 98.1565C319.857 99.3409 318.688 100.351 317.407 101.156C313.133 104.117 308.02 105.888 304.029 109.315C300.862 112.022 296.221 111.941 292.755 109.737C291.448 108.838 290.214 107.811 289.067 106.667C287.305 105.043 285.524 103.381 283.68 101.833C282.397 100.75 281.066 99.705 279.69 98.698C278.023 97.4579 276.297 96.3211 274.519 95.2925C272.314 94.0365 270.095 92.7912 267.64 92.4935C267.325 91.7689 267.149 90.9772 267.126 90.1709C267.103 89.3645 267.232 88.5618 267.505 87.8157C268.066 86.3317 268.826 84.9532 269.758 83.7281C270.456 82.5773 271.33 81.5747 272.339 80.7666C272.451 80.6868 272.581 80.6444 272.714 80.6444C272.847 80.6444 272.977 80.6868 273.09 80.7666L282.631 87.3555L284.417 88.5845C288.331 91.2915 292.182 94.1881 296.096 96.8788C296.168 97.1874 296.548 97.2253 296.823 97.1441C297.097 97.0629 297.41 96.933 297.646 97.1116C297.761 97.1983 297.843 97.3607 297.988 97.3932C298.103 97.3975 298.216 97.3553 298.305 97.2741C299.923 96.0234 300.751 93.6196 302.566 92.7804C303.341 92.4231 304.26 92.3689 304.867 91.6976C305.226 91.1857 305.548 90.6426 305.83 90.0734C306.614 88.9202 308.102 88.5737 308.829 87.3664C309.31 86.5844 309.889 85.8843 310.547 85.2874C311.859 84.0868 312.995 82.6639 313.917 81.0698C314.393 80.2828 314.765 79.422 315.02 78.5144C315.145 78.0434 315.222 77.5561 315.361 77.0905C315.799 75.672 316.806 74.5838 317.812 73.5985C319.636 71.801 321.605 70.0956 323.916 69.2672C324.722 69.0573 325.503 68.7392 326.241 68.3198C327.17 67.6809 328.022 66.4952 329.086 66.7713C329.49 66.912 329.853 67.1697 330.14 67.5185C331.445 68.9458 332.645 70.4903 333.727 72.1367C335.444 74.5946 337.159 77.0544 338.873 79.516C339.414 80.4011 340.098 81.1634 340.89 81.7628C342.039 82.428 343.359 82.6195 344.621 82.3042C344.453 84.3128 343.032 85.9695 342.445 87.8753C342.161 88.8011 342.05 89.7864 341.838 90.7339C341.54 91.9227 341.159 93.0831 340.698 94.2043C339.542 97.2307 338.377 100.273 336.721 102.991C335.864 104.404 334.877 105.698 333.91 107.025C330.092 112.206 327.17 118.454 322.838 123.115C321.788 124.258 321.124 125.822 319.949 126.802C318.673 127.863 317.027 128.026 315.491 128.096Z"
                  fill="#434175"
                />
                <path
                  opacity="0.1"
                  d="M333.631 59.4028C333.206 59.4261 332.793 59.5655 332.427 59.8089C333.308 59.4624 334.382 60.3882 335.195 59.9497C335.575 59.7439 335.518 59.6844 335.195 59.5598C334.709 59.3758 334.122 59.5436 333.631 59.4028Z"
                  fill="black"
                />
                <path
                  d="M485.611 238.314L450.227 252.446L452.482 259.588L487.866 245.457L485.611 238.314Z"
                  fill="#D0D2D5"
                />
                <path
                  d="M462.063 267.257L494.273 254.394C495.115 254.058 496.041 254.111 496.848 254.543C497.655 254.975 498.277 255.75 498.576 256.697C498.875 257.644 498.827 258.686 498.443 259.594C498.059 260.502 497.37 261.201 496.528 261.537L464.319 274.4L462.063 267.257Z"
                  fill="#D0D2D5"
                />
                <path
                  d="M431.378 245.039L439.226 241.904C446.204 239.117 453.881 239.562 460.568 243.141C467.254 246.72 472.403 253.14 474.881 260.988L477.668 269.814C478.637 272.883 478.482 276.259 477.238 279.199C475.993 282.14 473.761 284.404 471.033 285.494L447.162 295.027C444.433 296.117 441.431 295.943 438.816 294.544C436.202 293.144 434.188 290.634 433.219 287.565L424.743 260.719C423.774 257.65 423.928 254.274 425.173 251.333C426.417 248.393 428.649 246.128 431.378 245.039Z"
                  fill="#3F3D56"
                />
                <path
                  opacity="0.1"
                  d="M333.197 64.687C332.871 64.5582 332.519 64.5338 332.182 64.6166C331.677 64.6768 331.208 64.9357 330.858 65.3475C330.951 65.3945 331.052 65.4189 331.154 65.4189C331.256 65.4189 331.357 65.3945 331.45 65.3475C331.764 65.2578 332.088 65.2177 332.413 65.2284C332.692 65.2284 333.525 65.5749 333.741 65.4233C334.059 65.1905 333.414 64.779 333.197 64.687Z"
                  fill="black"
                />
                <path
                  opacity="0.1"
                  d="M359.67 47.611C358.945 47.3355 358.253 46.9609 357.609 46.4958C355.919 45.2884 354.499 43.648 352.829 42.4136C351.985 41.8175 351.113 41.2753 350.215 40.7894L344.578 37.5409C344.148 37.266 343.688 37.0549 343.21 36.9129C342.291 36.6855 341.256 37.3785 340.322 37.2323C339.838 37.1323 339.378 36.9179 338.973 36.6034C338.568 36.2889 338.227 35.8814 337.973 35.4078C337.464 34.4616 337.105 33.4227 336.914 32.338C336.77 31.6984 336.662 31.0492 336.591 30.3944C336.508 29.7143 336.496 29.0255 336.557 28.3425C336.654 26.9859 337.225 25.7279 338.146 24.845C338.815 24.3112 339.576 23.9422 340.38 23.7622C340.887 23.618 341.404 23.522 341.925 23.4753C342.221 23.4482 342.519 23.4482 342.816 23.4753C344.943 23.6647 346.744 25.289 348.164 27.0756C348.91 28.0176 349.608 29.0301 350.321 29.9883C350.488 30.5718 350.69 31.1416 350.927 31.6938C351.693 33.4046 352.94 34.7689 354.167 36.0954L355.501 37.5409C356.17 38.2664 357.33 38.0823 357.961 38.8457C358.217 39.2045 358.409 39.6166 358.524 40.0585C359.234 42.017 359.646 44.0963 359.742 46.2088C359.747 46.6775 359.722 47.1461 359.67 47.611Z"
                  fill="black"
                />
                <path
                  opacity="0.1"
                  d="M315.828 116.9L286.819 121.702C286.886 120.831 287.118 119.986 287.498 119.223C290.868 118.14 294.286 117.057 297.785 117.111C298.926 117.111 300.058 117.263 301.194 117.301C304.491 117.414 307.697 115.752 310.971 116.218C311.296 116.254 311.622 116.173 311.903 115.987C312.184 115.802 312.406 115.52 312.536 115.184C312.675 114.783 312.733 114.258 313.094 114.101C313.354 113.993 313.71 114.128 313.874 113.879C313.932 113.745 313.966 113.6 313.975 113.451C314.071 112.91 314.557 112.666 314.938 112.368C315.901 111.621 316.445 110.344 316.926 109.12C317.052 108.855 317.129 108.564 317.152 108.265C317.152 108.026 317.085 107.788 317.09 107.545C317.09 106.689 317.942 106.196 318.385 105.498C318.967 104.578 318.866 103.332 319.15 102.25C319.535 100.885 320.561 99.9161 320.816 98.5734L320.941 98.3894L325.88 96.2238L315.828 116.9Z"
                  fill="black"
                />
                <path
                  opacity="0.1"
                  d="M204.596 379.887C317.591 379.887 409.191 371.888 409.191 362.021C409.191 352.153 317.591 344.154 204.596 344.154C91.6006 344.154 0 352.153 0 362.021C0 371.888 91.6006 379.887 204.596 379.887Z"
                  fill="#FFC107"
                />
                <path
                  opacity="0.1"
                  d="M385.468 427C458.582 427 517.853 418.33 517.853 407.634C517.853 396.938 458.582 388.268 385.468 388.268C312.354 388.268 253.083 396.938 253.083 407.634C253.083 418.33 312.354 427 385.468 427Z"
                  fill="#FFC107"
                />
                <path
                  d="M228.786 347.554L228.921 339.888C235.34 339.477 241.758 339.202 248.177 339.065C251.903 338.989 255.677 338.962 259.283 340.013C261.781 340.743 264.145 341.978 266.61 342.844C271.52 344.566 276.719 344.793 281.875 344.95C286.877 345.107 292.1 345.161 296.592 342.676C304.366 338.345 307.635 327.707 308.015 317.967C308.395 308.227 306.672 298.411 307.871 288.731"
                  stroke="#3F3D56"
                  stroke-width="12"
                  stroke-miterlimit="10"
                />
                <path
                  d="M246.386 362.557L160.605 361.322L160.856 358.848L165.005 318.032H240.335L245.881 358.848L246.304 361.94L246.386 362.557Z"
                  fill="#D0D2D5"
                />
                <path
                  opacity="0.1"
                  d="M246.304 361.939H203.493L160.605 361.322L160.856 358.848H245.881L246.304 361.939Z"
                  fill="black"
                />
                <path
                  d="M260.135 359.465H146.308V362.557H260.135V359.465Z"
                  fill="#D0D2D5"
                />
                <path
                  d="M368.734 72.8839C368.743 71.8239 368.565 70.7726 368.211 69.7901C367.857 68.8077 367.334 67.9136 366.672 67.1591C366.01 66.4045 365.222 65.8044 364.353 65.3932C363.484 64.982 362.552 64.7678 361.61 64.7628H43.7304C42.7881 64.7685 41.856 64.9832 40.9876 65.3946C40.1192 65.8061 39.3315 66.4062 38.6697 67.1606C38.0078 67.915 37.4848 68.8089 37.1306 69.791C36.7765 70.7731 36.5981 71.8241 36.6057 72.8839V289.586H368.734V72.8839Z"
                  fill="#3F3D56"
                />
                <path
                  d="M36.6057 287.421V312.807C36.6057 314.932 37.3564 316.97 38.6925 318.473C40.0287 319.976 41.8409 320.82 43.7305 320.82H361.61C363.499 320.82 365.311 319.976 366.648 318.473C367.984 316.97 368.734 314.932 368.734 312.807V287.421H36.6057Z"
                  fill="#D0D2D5"
                />
                <path
                  d="M356.637 78.3953H50.3546V273.198H356.637V78.3953Z"
                  fill="#2F2E41"
                />
                <path
                  d="M204.321 311.188C205.446 311.188 206.556 310.902 207.567 310.349C208.579 309.797 209.465 308.993 210.161 307.999C210.373 307.695 210.566 307.375 210.738 307.041L206.666 306.288L211.071 306.326C211.493 305.292 211.723 304.172 211.747 303.035C211.771 301.897 211.589 300.766 211.21 299.71L205.303 303.159L210.753 298.655C210.25 297.646 209.567 296.766 208.746 296.071C207.925 295.375 206.984 294.878 205.984 294.613C204.983 294.347 203.945 294.318 202.934 294.527C201.923 294.737 200.962 295.18 200.111 295.829C199.26 296.478 198.539 297.318 197.992 298.297C197.445 299.276 197.085 300.372 196.935 301.516C196.784 302.66 196.847 303.826 197.118 304.941C197.389 306.056 197.864 307.096 198.511 307.994C199.202 308.985 200.084 309.788 201.09 310.341C202.096 310.894 203.201 311.184 204.321 311.188Z"
                  fill="#FFC107"
                />
                <path
                  opacity="0.1"
                  d="M211.745 320.814L245.967 359.465L240.715 320.814H211.745Z"
                  fill="black"
                />
                <path
                  d="M358.731 76.809L377.111 49.4194C378.208 47.7952 379.34 46.1006 380.846 44.9311C385.179 41.5636 391.529 43.556 395.154 47.871C398.779 52.186 400.3 58.1901 401.412 63.994C404.002 77.3526 405.159 91.0122 404.859 104.68C404.705 111.876 404.132 119.147 402.095 125.974C399.005 136.358 392.742 145.102 388.01 154.668C380.389 170.082 377.197 190.639 386.845 204.548C389.988 209.079 394.268 212.544 397.171 217.276C400.449 222.62 401.725 229.155 402.948 235.5C404.772 245.083 406.601 254.725 406.938 264.519C408.026 296.186 391.972 327.826 367.179 342.887C349.969 353.347 329.149 356.379 314.182 370.564C308.886 375.561 304.323 382.908 305.623 390.52C306.682 396.698 311.505 401.392 316.801 403.433C322.096 405.474 327.839 405.306 333.424 404.949C346.836 404.086 360.184 402.232 373.38 399.399C384.563 396.995 395.726 394.922 405.475 388.306C406.452 387.725 407.287 386.883 407.906 385.853C408.537 384.668 408.642 383.233 408.729 381.852C408.994 377.786 409.244 373.569 407.969 369.752C406.481 365.291 403.087 361.912 401.46 357.516C399.833 353.12 400.127 348.058 401.181 343.44C402.481 337.733 404.844 332.417 407.222 327.171C409.538 322.06 411.887 316.965 414.612 312.119C422.285 298.498 432.77 287.215 443.145 276.089"
                  stroke="#3F3D56"
                  stroke-width="12"
                  stroke-miterlimit="10"
                />
                <path
                  d="M389.146 37.5464C389.955 37.1507 390.821 36.925 391.702 36.8805C392.266 36.9298 392.821 37.0721 393.349 37.3028C394.3 37.6168 395.189 38.1333 395.967 38.8241C396.353 39.1733 396.659 39.6204 396.861 40.1287C397.062 40.637 397.154 41.1919 397.128 41.7477C397.017 42.8305 396.304 43.7617 395.524 44.4547C394.467 45.4342 393.157 46.0038 391.789 46.0789C390.258 46.0789 388.814 45.3318 387.336 44.8662C386.261 44.5242 385.151 44.3422 384.033 44.3248C383.471 44.3571 382.907 44.3153 382.353 44.2003C382.076 44.1423 381.814 44.0116 381.59 43.8188C381.366 43.6259 381.186 43.3764 381.063 43.0904C380.931 42.5684 380.931 42.0152 381.063 41.4933C381.179 40.8219 381.16 39.2248 381.689 38.8241C382.113 38.5047 383.615 38.7646 384.135 38.7159C385.836 38.5217 387.516 38.1298 389.146 37.5464Z"
                  fill="#FBBEBE"
                />
                <path
                  d="M382.469 38.0878C380.476 39.1164 378.136 38.261 375.97 38.2556C374.906 38.2556 373.847 38.4559 372.788 38.5263C371.614 38.5733 370.439 38.5389 369.269 38.4234L365.745 38.1527C363.669 38.0752 361.605 37.7559 359.588 37.1999C357.864 34.9151 355.067 33.9081 352.988 32.0457C351.322 30.5514 350.128 28.5157 348.708 26.7237C347.288 24.9316 345.488 23.3128 343.365 23.1234C342.542 23.0772 341.719 23.1758 340.924 23.4157C340.12 23.5921 339.36 23.9614 338.695 24.4985C338.238 24.9349 337.863 25.4685 337.59 26.0688C337.317 26.669 337.153 27.324 337.106 27.996C337.019 29.3407 337.137 30.6923 337.458 31.9916C337.649 33.078 338.008 34.1186 338.517 35.0667C338.775 35.5385 339.117 35.9445 339.522 36.2587C339.928 36.5729 340.387 36.7884 340.871 36.8913C341.8 37.032 342.83 36.3499 343.759 36.5664C344.237 36.7084 344.697 36.9195 345.127 37.1944L350.769 40.4429C351.664 40.93 352.535 41.4722 353.378 42.0671C355.053 43.3015 356.468 44.9419 358.158 46.1493C359.848 47.3566 361.98 48.1146 363.858 47.3241C369.635 44.904 376.143 46.0302 382.271 46.6311C382.233 46.5012 382.483 46.3821 382.555 46.2738C383.314 45.1038 383.657 43.658 383.518 42.2187C383.369 40.7948 382.888 39.4521 382.469 38.0878Z"
                  fill="#F86D70"
                />
                <path
                  d="M372.778 19.8479C373.378 19.5377 373.881 19.0323 374.222 18.397C374.771 17.2546 374.434 15.8524 374.059 14.6071C373.683 13.3619 373.303 12.2737 372.884 11.1259C372.584 10.1628 372.131 9.26926 371.546 8.48926C370.694 7.46601 369.476 6.95168 368.46 6.14498C367.257 5.1867 366.356 3.82777 365.341 2.63127C364.325 1.43477 363.083 0.32489 361.619 0.12457C360.492 0.0608789 359.367 0.296423 358.336 0.812154C349.546 4.44497 342.358 11.6402 334.487 17.3466C331.426 19.5718 327.989 21.6454 324.378 21.3476L327.608 27.119C328.431 28.597 329.356 30.1617 330.8 30.7951C332.076 31.3365 333.501 31.0658 334.839 30.7951C335.904 30.6216 336.941 30.2713 337.915 29.7556C339.841 28.5808 341.078 26.139 343.148 25.289C344.693 24.6556 346.417 25.0454 347.962 25.6518C349.507 26.2581 351.024 27.0811 352.651 27.3301C355.539 27.7687 358.428 26.3015 360.835 24.4065C362.279 23.2804 363.593 21.9865 365.167 21.1581C366.351 20.467 367.695 20.2006 369.018 20.3947C370.477 20.6221 371.334 20.6979 372.778 19.8479Z"
                  fill="#2F2E41"
                />
                <path
                  opacity="0.1"
                  d="M374.222 18.3969C374.762 17.2762 374.444 15.9011 374.078 14.6937C374.197 15.3854 374.112 16.1018 373.837 16.7348C373.493 17.367 372.99 17.8715 372.393 18.1858C370.949 19.0412 370.073 18.9654 368.59 18.6893C367.267 18.4986 365.924 18.7649 364.739 19.4527C363.174 20.3027 361.85 21.6183 360.406 22.7011C357.999 24.596 355.111 26.0578 352.222 25.6193C350.59 25.3756 349.084 24.5365 347.534 23.9409C345.983 23.3454 344.255 22.9447 342.72 23.5782C340.654 24.4282 339.432 26.8753 337.491 28.0447C336.517 28.5597 335.481 28.91 334.415 29.0842C333.072 29.3766 331.647 29.6636 330.376 29.0842C328.932 28.4562 328.008 26.8861 327.18 25.4081L324.893 21.3205C324.71 21.3205 324.523 21.3205 324.34 21.3205L327.57 27.0919C328.393 28.5699 329.317 30.1346 330.761 30.768C332.037 31.3094 333.462 31.0387 334.8 30.768C335.866 30.5945 336.903 30.2442 337.877 29.7285C339.802 28.5537 341.039 26.1119 343.109 25.2619C344.655 24.6285 346.378 25.0183 347.923 25.6247C349.469 26.231 350.985 27.054 352.612 27.303C355.501 27.7416 358.389 26.2744 360.796 24.3794C362.24 23.2533 363.555 21.9594 365.129 21.131C366.313 20.4399 367.657 20.1735 368.98 20.3676C370.463 20.6383 371.339 20.7141 372.778 19.8641C373.38 19.5496 373.883 19.0383 374.222 18.3969Z"
                  fill="black"
                />
                <path
                  d="M399.111 388.734C399.395 388.235 399.749 387.793 400.16 387.423C402.264 385.193 403.241 381.912 403.761 378.696C404.281 375.48 404.43 372.199 405.263 369.054C405.713 367.439 406.28 365.87 406.958 364.36C407.439 363.201 408.041 360.927 408.927 360.12C409.099 359.951 409.308 359.837 409.533 359.79C409.947 358.794 410.54 357.905 411.276 357.181C412.653 355.778 414.333 354.663 415.252 352.849C415.504 352.22 415.815 351.622 416.181 351.068C416.802 350.294 417.784 349.985 418.357 349.168C419.103 348.117 418.935 346.618 418.839 345.275C418.742 343.932 418.839 342.335 419.869 341.637C420.485 341.209 421.279 341.247 421.92 340.873C422.882 340.332 423.263 338.962 423.244 337.744C423.224 336.526 422.887 335.34 422.801 334.128C422.531 330.251 424.803 326.396 423.922 322.639C423.59 321.215 422.834 319.975 422.271 318.654C422.078 318.211 421.917 317.751 421.79 317.279C420.289 317.949 418.712 318.378 417.106 318.551C419.758 311.86 419.084 304.08 420.321 296.895L420.163 296.646C418.91 294.796 418.2 292.554 418.131 290.23C418.131 287.523 419.243 285.049 419.744 282.434C420.167 280.204 420.153 277.881 420.707 275.694C421.094 274.335 421.606 273.025 422.233 271.785C422.834 270.529 423.465 269.3 424.124 268.087C424.741 265.792 425.358 263.496 425.978 261.2C426.844 257.952 427.735 254.704 429.42 251.921C430.036 250.897 430.224 248.835 431.172 248.218C431.941 247.767 432.816 247.595 433.675 247.725C435.014 246.88 436.188 245.662 436.357 243.995C436.374 243.63 436.341 243.265 436.261 242.912H436.097C433.974 242.69 432.905 240.589 431.803 238.754C430.017 235.771 430.7 231.743 431.803 228.359C432.076 227.289 432.571 226.308 433.247 225.495C434.792 223.871 437.238 224.228 439.231 223.443C439.877 223.125 440.538 222.845 441.209 222.604C442.533 222.252 443.92 222.744 445.133 223.427C446.346 224.109 447.477 225.008 448.748 225.549C450.019 226.09 451.588 226.518 451.901 227.985C451.99 228.48 451.951 228.992 451.791 229.463C451.499 230.402 450.986 231.235 450.308 231.873C450.849 233.128 451.142 234.5 451.166 235.895C451.19 237.289 450.945 238.673 450.447 239.951C449.95 241.229 449.212 242.37 448.285 243.296C447.357 244.222 446.262 244.911 445.075 245.316C444.709 245.971 444.367 246.647 444.054 247.335C443.496 248.548 443.024 249.977 443.212 251.276C443.561 251.69 443.883 252.131 444.175 252.597C445.556 254.763 446.341 257.308 447.063 259.841C448.038 263.076 448.816 266.38 449.393 269.733C450.568 272.537 452.002 275.223 452.855 278.173C454.38 278.177 455.899 277.95 457.37 277.497L461.433 276.457C462.844 276.1 464.322 275.71 465.429 274.66C466.016 274.118 466.473 273.398 467.07 272.857C467.667 272.315 468.866 271.693 469.521 272.137C469.64 272.219 469.752 272.315 469.853 272.424C470.445 271.07 474.234 276.609 471.644 277.156L471.812 277.697C472.154 278.818 472.881 280.182 472.698 281.351L454.616 288.33C453.457 288.859 452.227 289.164 450.977 289.234C450.49 289.23 450.004 289.157 449.533 289.018V290.057V290.095C449.485 297.236 450.496 304.334 450.683 311.47C450.717 312.769 450.683 314.177 449.952 315.195C449.133 316.31 447.679 316.526 446.413 316.277C446.111 316.223 445.812 316.149 445.518 316.055C445.09 317.85 444.781 319.678 444.594 321.524L443.395 331.139C443.239 332.129 443.176 333.134 443.207 334.138C443.347 336.401 444.411 338.437 445.181 340.532C445.951 342.628 446.409 345.134 445.393 347.089C445.08 347.695 444.642 348.215 444.358 348.843C443.997 349.813 443.832 350.862 443.876 351.913C443.803 354.836 443.732 357.756 443.665 360.673C443.875 360.638 444.09 360.688 444.271 360.813C445.272 361.685 445.162 365.865 445.234 367.159C445.311 369.324 445.234 371.533 445.34 373.72C445.47 376.677 445.903 379.608 446.63 382.453C446.803 383.377 447.183 384.236 447.732 384.949C448.295 385.498 448.965 385.889 449.687 386.092C452.087 386.936 454.597 387.32 457.11 387.228C458.126 387.191 459.185 387.082 460.129 387.515C461.072 387.949 461.833 389.14 461.491 390.222C461.197 391.132 460.307 391.565 459.503 391.906C457.665 392.632 455.893 393.549 454.207 394.646C453.557 395.144 452.871 395.581 452.156 395.95C451.474 396.228 450.767 396.424 450.048 396.535L441.517 398.159C439.77 398.5 437.666 398.701 436.554 397.077C435.952 396.2 435.866 395.008 435.895 393.899C435.943 391.733 436.328 389.529 436.073 387.364C435.887 386.081 435.588 384.823 435.182 383.606L432.621 375.096C431.764 372.242 430.898 369.368 430.566 366.379C430.445 365.296 430.455 364.067 431.191 363.39C431.378 363.219 431.594 363.093 431.827 363.022C431.856 360.413 432.159 357.798 432.029 355.188C431.995 354.538 431.938 353.883 431.889 353.234C431.439 353.708 431.039 354.238 430.696 354.815C429.877 356.26 429.574 358.177 428.317 359.146C427.249 359.969 425.665 359.925 424.914 361.117C424.673 361.574 424.491 362.068 424.375 362.584C423.936 363.859 423.282 365.026 422.449 366.022C422.159 367.209 421.761 368.359 421.26 369.454C420.551 371.133 419.845 372.811 419.142 374.489C418.386 376.287 417.626 378.084 416.735 379.784C416.06 380.863 415.517 382.039 415.122 383.282C414.443 385.956 415.546 388.891 417.303 390.861C419.06 392.832 421.366 393.964 423.638 395.019C423.88 395.108 424.102 395.256 424.288 395.452C424.484 395.716 424.587 396.051 424.577 396.394C424.577 397.645 423.667 398.717 422.618 399.101C421.545 399.425 420.421 399.472 419.33 399.237C413.177 398.398 407.044 396.708 401.604 393.346C400.791 392.91 400.069 392.285 399.486 391.511C399.212 391.126 399.033 390.667 398.967 390.179C398.901 389.691 398.951 389.193 399.111 388.734Z"
                  fill="url(#paint1_linear)"
                />
                <path
                  d="M425.116 267.324C424.092 269.092 423.13 270.908 422.228 272.77C421.599 273.998 421.088 275.298 420.702 276.647C420.138 278.812 420.158 281.129 419.739 283.338C419.257 285.937 418.131 288.417 418.131 291.075C418.202 293.385 418.912 295.613 420.162 297.447C421.409 299.263 422.834 300.916 424.408 302.374C428.044 291.783 430.074 280.581 430.416 269.235C430.464 267.665 430.469 266.041 429.964 264.579C429.646 263.658 428.149 261.135 427.181 262.126C426.83 262.489 426.738 264.124 426.522 264.665C426.116 265.592 425.646 266.481 425.116 267.324Z"
                  fill="#F86D70"
                />
                <path
                  opacity="0.1"
                  d="M425.116 267.324C424.092 269.092 423.13 270.908 422.228 272.77C421.599 273.998 421.088 275.298 420.702 276.647C420.138 278.812 420.158 281.129 419.739 283.338C419.257 285.937 418.131 288.417 418.131 291.075C418.202 293.385 418.912 295.613 420.162 297.447C421.409 299.263 422.834 300.916 424.408 302.374C428.044 291.783 430.074 280.581 430.416 269.235C430.464 267.665 430.469 266.041 429.964 264.579C429.646 263.658 428.149 261.135 427.181 262.126C426.83 262.489 426.738 264.124 426.522 264.665C426.116 265.592 425.646 266.481 425.116 267.324Z"
                  fill="black"
                />
                <path
                  d="M476.795 273.241C478.677 272.889 480.766 273.063 482.23 274.432C483.113 275.276 483.672 276.471 483.789 277.767C483.915 279.272 483.139 281.048 481.801 281.167C481.479 281.171 481.157 281.148 480.838 281.097C479.993 281.091 479.149 281.169 478.316 281.33C476.676 281.503 475.022 281.231 473.495 280.538C471.967 279.845 470.609 278.75 469.535 277.345C468.389 275.753 469.901 275.022 471.263 274.698C473.121 274.254 474.936 273.599 476.795 273.241Z"
                  fill="#FBBEBE"
                />
                <path
                  d="M444.599 322.141L443.405 331.68C443.25 332.663 443.189 333.661 443.222 334.658C443.361 336.905 444.42 338.924 445.191 341.003C445.961 343.082 446.423 345.567 445.407 347.5C445.094 348.107 444.651 348.616 444.372 349.238C444.012 350.203 443.847 351.246 443.891 352.292L443.564 365.827C439.847 366.109 436.118 366.086 432.405 365.756C432.259 365.77 432.113 365.728 431.991 365.637C431.893 365.497 431.844 365.322 431.851 365.145C431.687 361.977 432.178 358.805 432.019 355.638C431.962 354.479 431.812 353.326 431.798 352.162C431.735 347.446 433.81 342.828 433.184 338.161C432.987 336.987 432.73 335.826 432.414 334.685C430.436 326.564 430.854 318.026 431.288 309.645C431.284 309.511 431.317 309.378 431.384 309.266C431.458 309.187 431.55 309.131 431.649 309.104C433.755 308.395 435.983 308.267 438.143 308.73C440.303 309.192 442.332 310.232 444.059 311.762C444.584 312.239 445.908 312.699 446.255 313.262C446.736 314.058 446.101 314.843 445.826 315.687C445.213 317.783 444.801 319.946 444.599 322.141Z"
                  fill="#3F3D56"
                />
                <path
                  opacity="0.1"
                  d="M444.599 322.141L443.405 331.68C443.25 332.663 443.189 333.661 443.222 334.658C443.361 336.905 444.42 338.924 445.191 341.003C445.961 343.082 446.423 345.567 445.407 347.5C445.094 348.107 444.651 348.616 444.372 349.238C444.012 350.203 443.847 351.246 443.891 352.292L443.564 365.827C439.847 366.109 436.118 366.086 432.405 365.756C432.259 365.77 432.113 365.728 431.991 365.637C431.893 365.497 431.844 365.322 431.851 365.145C431.687 361.977 432.178 358.805 432.019 355.638C431.962 354.479 431.812 353.326 431.798 352.162C431.735 347.446 433.81 342.828 433.184 338.161C432.987 336.987 432.73 335.826 432.414 334.685C430.436 326.564 430.854 318.026 431.288 309.645C431.284 309.511 431.317 309.378 431.384 309.266C431.458 309.187 431.55 309.131 431.649 309.104C433.755 308.395 435.983 308.267 438.143 308.73C440.303 309.192 442.332 310.232 444.059 311.762C444.584 312.239 445.908 312.699 446.255 313.262C446.736 314.058 446.101 314.843 445.826 315.687C445.213 317.783 444.801 319.946 444.599 322.141Z"
                  fill="black"
                />
                <path
                  d="M422.276 319.261C422.839 320.576 423.595 321.805 423.927 323.218C424.808 326.948 422.541 330.798 422.81 334.62C422.897 335.828 423.229 337.002 423.253 338.21C423.277 339.417 422.882 340.76 421.929 341.312C421.289 341.685 420.485 341.648 419.883 342.07C418.868 342.763 418.752 344.355 418.853 345.681C418.954 347.008 419.118 348.502 418.372 349.547C417.799 350.353 416.817 350.662 416.201 351.425C415.832 351.975 415.519 352.569 415.267 353.196C414.347 354.999 412.672 356.109 411.295 357.527C409.918 358.945 408.753 361.024 409.37 362.984C409.822 364.43 411.093 365.318 412.316 365.995C414.547 367.235 416.901 368.171 419.33 368.783C419.591 368.87 419.867 368.885 420.134 368.826C420.404 368.713 420.645 368.527 420.837 368.285C422.257 366.72 423.725 365.08 424.38 362.974C424.497 362.462 424.678 361.971 424.919 361.517C425.67 360.337 427.249 360.375 428.322 359.563C429.574 358.604 429.877 356.699 430.696 355.264C431.471 353.91 432.713 352.979 433.584 351.712C435.028 349.612 435.418 346.813 436.472 344.414C436.92 343.391 437.493 342.443 437.849 341.377C438.209 340.107 438.431 338.793 438.509 337.463C439.188 331.139 440.916 324.772 439.828 318.513C439.587 317.133 439.216 315.806 439.062 314.388C438.793 311.93 439.216 309.423 438.894 306.971C438.887 306.664 438.818 306.363 438.692 306.091C438.566 305.819 438.386 305.583 438.167 305.401C437.906 305.27 437.624 305.204 437.339 305.206C434.485 305.039 431.624 305.113 428.78 305.428C427.335 305.585 425.713 305.915 424.851 307.241C424.115 308.373 424.153 309.9 423.889 311.28C423.6 312.975 422.834 313.906 422.03 315.238C421.226 316.57 421.684 317.891 422.276 319.261Z"
                  fill="#3F3D56"
                />
                <path
                  d="M433.382 363.255C432.621 363.255 431.779 363.206 431.191 363.748C430.46 364.419 430.445 365.659 430.566 366.72C430.902 369.682 431.764 372.535 432.626 375.383L435.187 383.834C435.593 385.039 435.891 386.287 436.078 387.559C436.333 389.724 435.948 391.89 435.899 394.056C435.899 395.138 435.962 396.34 436.564 397.212C437.652 398.782 439.775 398.598 441.522 398.262L450.048 396.638C450.767 396.528 451.473 396.334 452.156 396.059C452.869 395.69 453.553 395.255 454.202 394.759C455.889 393.675 457.662 392.769 459.498 392.052C460.297 391.717 461.192 391.284 461.481 390.379C461.823 389.297 461.062 388.111 460.119 387.672C459.175 387.234 458.121 387.348 457.1 387.386C454.59 387.476 452.085 387.094 449.687 386.254C448.964 386.059 448.294 385.671 447.732 385.122C447.181 384.418 446.8 383.566 446.625 382.648C445.903 379.825 445.47 376.919 445.335 373.986C445.239 371.82 445.306 369.655 445.229 367.489C445.181 366.206 445.292 362.075 444.266 361.192C443.501 360.532 440.348 362.356 439.317 362.622C437.37 363.111 435.376 363.324 433.382 363.255Z"
                  fill="#2F2E41"
                />
                <path
                  d="M405.292 369.275C404.464 372.383 404.329 375.659 403.795 378.848C403.261 382.036 402.303 385.296 400.199 387.51C399.788 387.874 399.435 388.313 399.154 388.809C398.977 389.273 398.916 389.783 398.98 390.282C399.044 390.782 399.229 391.252 399.515 391.641C400.096 392.411 400.817 393.033 401.629 393.465C407.064 396.8 413.182 398.479 419.349 399.313C420.438 399.547 421.56 399.502 422.632 399.183C423.682 398.782 424.611 397.721 424.591 396.476C424.601 396.136 424.498 395.804 424.303 395.544C424.115 395.352 423.894 395.206 423.653 395.117C421.38 394.066 419.07 392.919 417.317 390.986C415.565 389.053 414.458 386.113 415.137 383.482C415.534 382.25 416.075 381.083 416.745 380.012C417.627 378.309 418.43 376.556 419.152 374.76L421.27 369.763C421.886 368.306 422.517 366.801 422.618 365.182C419.959 365.318 417.303 364.841 414.814 363.78C413.652 363.247 412.569 362.517 411.603 361.615C410.785 360.846 410.039 359.417 408.936 360.418C408.05 361.219 407.492 363.472 406.967 364.619C406.302 366.12 405.742 367.677 405.292 369.275Z"
                  fill="#2F2E41"
                />
                <path
                  d="M436.323 245.197C436.111 247.27 434.321 248.645 432.612 249.463L443.424 253.35C442.726 251.845 443.294 250.004 443.987 248.477C444.552 247.27 445.195 246.112 445.913 245.012C446.019 244.845 446.139 244.628 446.062 244.439C445.993 244.311 445.885 244.217 445.759 244.173C443.535 243.058 441.243 241.905 438.812 241.499C438.109 241.38 436.781 241.066 436.256 241.872C435.731 242.679 436.439 244.238 436.323 245.197Z"
                  fill="#FBBEBE"
                />
                <path
                  opacity="0.1"
                  d="M436.323 245.197C436.111 247.27 434.321 248.645 432.612 249.463L443.424 253.35C442.726 251.845 443.294 250.004 443.987 248.477C444.552 247.27 445.195 246.112 445.913 245.012C446.019 244.845 446.139 244.628 446.062 244.439C445.993 244.311 445.885 244.217 445.759 244.173C443.535 243.058 441.243 241.905 438.812 241.499C438.109 241.38 436.781 241.066 436.256 241.872C435.731 242.679 436.439 244.238 436.323 245.197Z"
                  fill="black"
                />
                <path
                  d="M442.625 246.88C447.309 246.88 451.107 242.609 451.107 237.341C451.107 232.072 447.309 227.801 442.625 227.801C437.94 227.801 434.142 232.072 434.142 237.341C434.142 242.609 437.94 246.88 442.625 246.88Z"
                  fill="#FBBEBE"
                />
                <path
                  d="M449.952 315.828C449.133 316.911 447.684 317.149 446.418 316.911C443.458 316.369 441.031 313.917 438.138 313.034C434.585 311.952 430.821 313.343 427.47 315.043C424.12 316.743 420.779 318.806 417.11 319.131C420.427 310.815 418.531 300.804 421.698 292.418C422.478 290.371 423.561 288.39 423.735 286.175C423.951 283.42 422.728 280.761 422.541 278.016C422.367 275.575 423.022 273.144 423.643 270.821L425.968 262.24C426.835 259.046 427.725 255.792 429.405 253.036C430.022 252.024 430.214 249.977 431.158 249.36C433.218 248.028 436.342 249.712 438.576 249.804C440.81 249.896 442.846 251.683 444.151 253.702C445.532 255.835 446.317 258.374 447.039 260.886C448.193 264.626 449.053 268.472 449.61 272.38C449.682 272.965 449.745 273.55 449.793 274.14C450.274 279.7 449.571 285.293 449.533 290.875C449.533 290.875 449.533 290.875 449.533 290.918C449.49 298 450.496 305.043 450.688 312.125C450.717 313.44 450.688 314.854 449.952 315.828Z"
                  fill="#F86D70"
                />
                <path
                  opacity="0.1"
                  d="M449.533 290.924C447.872 290.453 446.365 289.251 445.08 287.93C443.965 286.812 442.973 285.549 442.124 284.167C441.058 282.278 440.202 280.249 439.577 278.125C437.795 272.485 436.662 266.612 436.208 260.648C436.083 259.024 436.044 257.286 436.906 255.998C437.388 255.299 438.066 254.805 438.831 254.595C439.595 254.386 440.399 254.474 441.113 254.844C442.254 255.472 442.991 256.734 443.669 257.936C445.027 260.334 446.389 262.754 447.261 265.418C447.646 266.598 447.93 267.816 448.305 269.002C448.687 270.172 449.128 271.316 449.624 272.429C449.697 273.014 449.759 273.599 449.807 274.189C450.255 279.722 449.571 285.315 449.533 290.924Z"
                  fill="black"
                />
                <path
                  d="M436.925 254.947C436.068 256.23 436.107 257.99 436.227 259.598C436.681 265.56 437.814 271.431 439.597 277.069C440.218 279.195 441.073 281.225 442.143 283.111C442.991 284.494 443.983 285.757 445.099 286.874C446.736 288.558 448.729 290.057 450.948 290.079C452.197 290.01 453.427 289.708 454.588 289.186L472.645 282.288C472.828 281.124 472.101 279.776 471.759 278.661L470.796 275.445C470.522 274.562 470.199 273.604 469.487 273.122C468.774 272.64 467.634 273.301 467.037 273.837C466.44 274.373 465.982 275.077 465.4 275.623C464.283 276.663 462.815 277.047 461.404 277.405L457.346 278.433C455.874 278.882 454.355 279.108 452.83 279.105C451.699 275.223 449.547 271.801 448.329 267.946C447.954 266.766 447.665 265.548 447.28 264.368C446.409 261.704 445.046 259.284 443.693 256.885C443.015 255.678 442.278 254.417 441.137 253.794C440.422 253.424 439.617 253.337 438.853 253.546C438.088 253.755 437.409 254.249 436.925 254.947Z"
                  fill="#F86D70"
                />
                <path
                  d="M439.919 239.49C439.984 238.865 440.158 238.259 440.429 237.709C440.572 237.433 440.788 237.214 441.047 237.085C441.307 236.955 441.596 236.922 441.874 236.989C442.721 237.287 443.005 238.765 443.891 238.813C444.488 238.846 444.916 238.164 445.104 237.519C445.292 236.875 445.393 236.155 445.84 235.7C446.151 235.437 446.509 235.252 446.89 235.159C448.945 234.428 451.068 233.074 451.752 230.773C451.91 230.308 451.949 229.801 451.863 229.312C451.55 227.855 449.937 227.417 448.71 226.886C447.482 226.356 446.303 225.468 445.099 224.786C443.896 224.103 442.5 223.616 441.176 223.963C440.503 224.2 439.843 224.479 439.197 224.796C437.204 225.571 434.759 225.213 433.213 226.827C432.54 227.633 432.045 228.607 431.769 229.669C430.686 233.031 430.007 237.032 431.793 239.988C432.891 241.813 433.964 243.897 436.082 244.114C438.547 244.363 439.529 241.829 439.919 239.49Z"
                  fill="#2F2E41"
                />
                <g opacity="0.1">
                  <path
                    opacity="0.1"
                    d="M443.684 236.372C443.872 235.733 443.973 235.007 444.416 234.552C444.728 234.292 445.086 234.108 445.465 234.011C447.525 233.28 449.644 231.932 450.332 229.626C450.489 229.159 450.526 228.653 450.438 228.164C450.391 227.933 450.304 227.714 450.183 227.52C450.967 227.899 451.651 228.413 451.844 229.312C451.93 229.801 451.891 230.308 451.733 230.773C451.049 233.074 448.926 234.428 446.871 235.159C446.49 235.252 446.132 235.437 445.821 235.7C445.374 236.155 445.272 236.881 445.085 237.519C444.897 238.158 444.468 238.846 443.872 238.813C443.275 238.781 442.986 238.169 442.605 237.655C443.13 237.579 443.506 236.962 443.684 236.372Z"
                    fill="black"
                  />
                  <path
                    opacity="0.1"
                    d="M434.672 242.955C437.146 243.21 438.124 240.681 438.523 238.342C438.588 237.717 438.761 237.112 439.033 236.561C439.176 236.285 439.392 236.067 439.652 235.939C439.912 235.81 440.201 235.778 440.478 235.846C440.935 236.003 441.229 236.512 441.542 236.929C441.321 236.953 441.108 237.034 440.919 237.165C440.73 237.297 440.571 237.475 440.454 237.687C440.182 238.238 440.008 238.843 439.943 239.468C439.553 241.807 438.571 244.341 436.092 244.081C435.11 243.963 434.203 243.436 433.55 242.603C433.905 242.788 434.284 242.907 434.672 242.955Z"
                    fill="black"
                  />
                </g>
                <path
                  d="M82.2138 352.07L91.4278 345.973C90.1791 343.583 88.5865 341.443 86.7149 339.639L69.3315 345.719L82.9744 336.71C79.6019 334.632 75.8065 333.578 71.9618 333.651C68.117 333.724 64.3554 334.922 61.0472 337.126C57.739 339.331 54.9983 342.466 53.0947 346.223C51.1911 349.981 50.1904 354.231 50.1909 358.556C50.1909 372.307 60.103 372.789 72.3354 372.789C84.5678 372.789 94.4799 372.307 94.4799 358.556C94.4772 355.073 93.821 351.631 92.5543 348.453L82.2138 352.07Z"
                  fill="#FFC107"
                />
                <path
                  opacity="0.1"
                  d="M84.5582 365.442C83.5776 364.336 82.4817 363.367 81.2943 362.557C79.619 361.306 77.8908 360.028 75.917 359.606C74.184 359.232 72.398 359.546 70.6216 359.438C67.5565 359.227 64.6713 357.739 62.5293 355.264C61.2728 353.802 60.2811 352.016 58.7695 350.884C57.1376 349.682 55.0675 349.422 53.1323 349.72C52.5711 349.813 52.015 349.941 51.4667 350.104C50.5979 352.815 50.1548 355.675 50.1572 358.556C50.1572 372.307 60.0693 372.789 72.3017 372.789C78.2374 372.789 83.6243 372.676 87.6007 370.986L86.9363 369.59C86.3027 368.1 85.5036 366.706 84.5582 365.442Z"
                  fill="black"
                />
                <path
                  d="M281.119 386.887L268.896 378.804C270.553 375.632 272.668 372.792 275.155 370.402L298.209 378.463L280.142 366.52C284.614 363.764 289.647 362.366 294.745 362.462C299.844 362.559 304.832 364.146 309.219 367.069C313.606 369.992 317.241 374.149 319.765 379.132C322.29 384.114 323.618 389.75 323.617 395.485C323.617 413.725 310.47 414.358 294.252 414.358C278.033 414.358 264.886 413.725 264.886 395.485C264.882 390.869 265.739 386.304 267.404 382.085L281.119 386.887Z"
                  fill="#FFC107"
                />
                <path
                  opacity="0.1"
                  d="M278.005 404.618C279.307 403.151 280.761 401.866 282.337 400.791C284.556 399.134 286.853 397.445 289.467 396.882C291.763 396.389 294.131 396.806 296.466 396.654C300.531 396.373 304.357 394.403 307.202 391.127C308.867 389.183 310.181 386.795 312.189 385.317C314.35 383.693 317.094 383.374 319.66 383.774C320.407 383.893 321.146 384.063 321.875 384.283C323.025 387.876 323.611 391.666 323.608 395.485C323.608 413.725 310.461 414.358 294.242 414.358C286.371 414.358 279.227 414.212 273.951 411.971L274.832 410.119C275.752 408.186 276.686 406.243 278.005 404.618Z"
                  fill="black"
                />
                <defs>
                  <linearGradient
                    id="paint0_linear"
                    x1="263.736"
                    y1="112.86"
                    x2="398.302"
                    y2="41.9029"
                    gradientUnits="userSpaceOnUse"
                  >
                    <stop stop-color="#808080" stop-opacity="0.25" />
                    <stop
                      offset="0.54"
                      stop-color="#808080"
                      stop-opacity="0.12"
                    />
                    <stop offset="1" stop-color="#808080" stop-opacity="0.1" />
                  </linearGradient>
                  <linearGradient
                    id="paint1_linear"
                    x1="-105152"
                    y1="140821"
                    x2="-102540"
                    y2="82754.4"
                    gradientUnits="userSpaceOnUse"
                  >
                    <stop stop-color="#808080" stop-opacity="0.25" />
                    <stop
                      offset="0.54"
                      stop-color="#808080"
                      stop-opacity="0.12"
                    />
                    <stop offset="1" stop-color="#808080" stop-opacity="0.1" />
                  </linearGradient>
                </defs>
              </svg>